<svg viewBox="0 0 18 13" xmlns="http://www.w3.org/2000/svg">
<path d="M14.8482 12.1876L13.3954 12.1876C13.3407 12.1931 13.2856 12.1931 13.2309 12.1876C12.9952 12.1546 12.9019 12.0446 12.9348 11.8136C12.9479 11.762 12.9472 11.708 12.9327 11.6568C12.9183 11.6056 12.8906 11.5592 12.8526 11.5221C12.7681 11.4261 12.7196 11.3036 12.7155 11.1756C12.7441 10.6836 12.6278 10.1939 12.3811 9.76767C12.329 9.63119 12.2298 9.518 12.1015 9.44868C12.0688 9.43886 12.0388 9.42189 12.0134 9.39898C11.9881 9.37608 11.9682 9.34782 11.9551 9.31625C11.9419 9.28468 11.936 9.25058 11.9376 9.21641C11.9392 9.18225 11.9484 9.14887 11.9644 9.11869C11.999 9.0294 12.0126 8.9333 12.004 8.8379C11.9954 8.74249 11.965 8.65037 11.9151 8.56871C11.8561 8.45874 11.8048 8.34481 11.7616 8.22772C11.7401 8.16071 11.7015 8.10054 11.6495 8.05324C11.5975 8.00594 11.5341 7.97317 11.4655 7.95823C11.4346 7.95612 11.4047 7.94605 11.3787 7.92901C11.3528 7.91196 11.3316 7.8885 11.3173 7.86089C11.303 7.83327 11.296 7.80242 11.297 7.77131C11.298 7.7402 11.3069 7.70987 11.323 7.68324C11.368 7.57033 11.383 7.44766 11.3667 7.32718C11.3503 7.2067 11.3032 7.09252 11.2298 6.99576C11.1201 6.80327 11.0379 6.59977 10.9283 6.41278C10.8738 6.32596 10.7902 6.26157 10.6925 6.23129C10.5942 6.20064 10.4908 6.18972 10.3883 6.19916C10.2857 6.2086 10.186 6.2382 10.0949 6.28629C9.82499 6.4392 9.51583 6.50812 9.20675 6.48428C8.33503 6.48428 7.45783 6.45678 6.58612 6.44028C6.46239 6.43985 6.33914 6.42509 6.21879 6.39628C6.16843 6.38971 6.12049 6.37071 6.07925 6.34099C6.03801 6.31126 6.00476 6.27174 5.98249 6.22596C5.96022 6.18018 5.94961 6.12957 5.95162 6.07867C5.95363 6.02777 5.96819 5.97817 5.99401 5.9343C6.09497 5.70585 6.14546 5.45819 6.14204 5.20832C6.14204 4.97733 6.14204 4.74634 6.14204 4.51535C6.14276 4.45034 6.13071 4.38583 6.10658 4.3255C6.08245 4.26517 6.04671 4.2102 6.0014 4.16372C5.95609 4.11725 5.9021 4.08018 5.84251 4.05464C5.78292 4.0291 5.71889 4.01558 5.65409 4.01486L2.52907 3.84987C2.41394 3.84987 2.28236 3.74537 2.19464 3.77837C1.91457 3.83872 1.62492 3.83872 1.34485 3.77837C1.02839 3.74913 0.714837 3.69395 0.407348 3.61338C0.362788 3.5955 0.323126 3.56721 0.291659 3.53086C0.260191 3.49451 0.237827 3.45115 0.226426 3.40438C0.182406 3.22412 0.15669 3.03986 0.149671 2.8544C0.149671 2.66741 0.149671 2.48592 0.149671 2.30442C0.149671 2.12293 0.182566 2.05693 0.0455033 1.97443C0.0455033 1.97443 0.00712587 1.88094 0.00712587 1.83694L0.00712586 0.978967C0.00712586 0.934968 0.00712586 0.86347 0.0345383 0.852471C0.166118 0.780973 0.138706 0.659977 0.160636 0.549981C0.182566 0.439985 0.253838 0.313489 0.41283 0.324489C0.571823 0.335489 0.703402 0.351988 0.813052 0.197993C0.821697 0.180619 0.834997 0.166004 0.85146 0.15579C0.867923 0.145575 0.886897 0.140164 0.906255 0.140164C0.925612 0.140164 0.944587 0.145575 0.961049 0.15579C0.977512 0.166004 0.990812 0.180619 0.999457 0.197993C1.04332 0.30799 1.12007 0.307989 1.21327 0.307989C3.0225 0.307989 4.83172 0.307989 6.63546 0.307989C7.58974 0.374794 8.54693 0.389482 9.5028 0.351988C10.4184 0.307989 11.323 0.346488 12.2276 0.329989C13.1322 0.313489 14.0478 0.329989 14.9688 0.329989C15.073 0.329989 15.1004 0.29149 15.1114 0.203493C15.1224 0.115496 15.1936 -1.1573e-07 15.3526 -1.16942e-07C15.5116 -1.18154e-07 15.5061 0.0824971 15.5226 0.170494C15.5249 0.19594 15.5328 0.220569 15.5456 0.242667C15.5584 0.264765 15.5758 0.283803 15.5967 0.298458C15.6175 0.313113 15.6413 0.323033 15.6664 0.327528C15.6915 0.332023 15.7172 0.330986 15.7419 0.324489C15.846 0.31899 15.9503 0.31899 16.0544 0.324489C16.2408 0.324489 16.3175 0.406986 16.3175 0.59398C16.3175 1.06146 16.3175 1.52895 16.3175 1.99643C16.3269 2.06891 16.3415 2.14061 16.3614 2.21092C16.3823 2.32167 16.3951 2.4338 16.3998 2.54641C16.3998 2.59798 16.3798 2.64753 16.3439 2.68451C16.3081 2.72148 16.2593 2.74297 16.2079 2.74441L15.9009 2.74991C15.7426 2.75583 15.5878 2.79867 15.4488 2.87505C15.3099 2.95142 15.1906 3.05922 15.1004 3.18989C14.9747 3.38516 14.9295 3.6218 14.9743 3.84987C15.0123 4.43875 15.1228 5.02066 15.3033 5.58231C15.4959 6.31494 15.8231 7.00507 16.2682 7.61724C16.7206 8.19214 17.1017 8.82005 17.4031 9.48718C17.5511 9.83087 17.6774 10.1836 17.7814 10.5431C17.8196 10.664 17.8228 10.7932 17.7908 10.9159C17.7588 11.0385 17.6928 11.1496 17.6004 11.2361C17.4143 11.4391 17.1778 11.589 16.9151 11.6706C16.8827 11.6802 16.8531 11.6978 16.8292 11.7219C16.8052 11.7459 16.7877 11.7755 16.7781 11.8081C16.717 11.9393 16.6356 12.06 16.5368 12.1656C16.4856 12.201 16.4233 12.2167 16.3614 12.2096L14.8482 12.1876ZM8.37889 5.8133C8.67495 5.8133 8.971 5.8133 9.26157 5.8133C9.44851 5.79523 9.63259 5.7546 9.80982 5.69231C9.90462 5.65395 9.98991 5.59528 10.0597 5.5204C10.1296 5.44553 10.1823 5.35625 10.2141 5.25882C10.246 5.16139 10.2562 5.05815 10.2442 4.95633C10.2321 4.85451 10.198 4.75656 10.1443 4.66934C10.073 4.54284 9.99623 4.52085 9.8811 4.58684C9.83252 4.61302 9.78816 4.64639 9.74952 4.68584C9.60697 4.83984 9.45894 4.99933 9.32736 5.16982C9.10621 5.44493 8.80851 5.64786 8.47209 5.7528C8.41597 5.75385 8.36075 5.73857 8.3131 5.70881C8.27473 5.70881 8.2528 5.63731 8.2199 5.60431C8.18701 5.57131 8.14315 5.49981 8.2199 5.44481C8.30929 5.36502 8.40261 5.28976 8.49951 5.21932C8.68699 5.09213 8.82487 4.90383 8.88982 4.68633C8.95476 4.46884 8.94277 4.23551 8.85587 4.02586C8.84803 4.00934 8.83656 3.99482 8.82231 3.98338C8.80807 3.97195 8.79142 3.96391 8.77363 3.95986C8.346 3.92137 7.92933 3.84987 7.51814 3.84987C7.31471 3.84626 7.11629 3.91327 6.95644 4.03954C6.79659 4.16582 6.68514 4.34362 6.64094 4.54285C6.61766 4.72543 6.61766 4.91024 6.64094 5.09283C6.65768 5.28779 6.74831 5.46889 6.89416 5.59883C7.04001 5.72877 7.22998 5.79766 7.42494 5.7913L8.37889 5.8133Z" />
</svg>
